<svg width="185" height="98" viewBox="0 0 185 98" fill="none" xmlns="http://www.w3.org/2000/svg">
<path d="M11.84 82.4C8.61333 82.4 6.09333 81.3867 4.28 79.36C2.49333 77.3333 1.6 74.5067 1.6 70.88C1.6 68.5867 2 66.6 2.8 64.92C3.62667 63.2133 4.8 61.9067 6.32 61C7.84 60.0667 9.62667 59.6 11.68 59.6C14.1333 59.6 16.1467 60.2267 17.72 61.48C19.32 62.7067 20.2533 64.3867 20.52 66.52C20.28 66.6267 19.9467 66.7333 19.52 66.84C19.12 66.9467 18.7867 67 18.52 67C18.2533 67 18.0533 66.9333 17.92 66.8C17.8133 66.64 17.6933 66.32 17.56 65.84C17.2667 64.5867 16.6 63.6133 15.56 62.92C14.52 62.2 13.2267 61.84 11.68 61.84C10.24 61.84 8.96 62.2133 7.84 62.96C6.74667 63.7067 5.89333 64.7733 5.28 66.16C4.69333 67.52 4.4 69.0933 4.4 70.88C4.4 73.7067 5.06667 75.96 6.4 77.64C7.76 79.32 9.57333 80.16 11.84 80.16C13.5733 80.16 15.0533 79.76 16.28 78.96C17.5067 78.1333 18.4267 76.9333 19.04 75.36C19.4133 75.36 19.72 75.52 19.96 75.84C20.2267 76.16 20.36 76.5333 20.36 76.96C20.36 77.8933 19.96 78.7867 19.16 79.64C18.3867 80.4667 17.3333 81.1333 16 81.64C14.6933 82.1467 13.3067 82.4 11.84 82.4ZM42.8313 69.44C42.8313 70.0533 42.8046 70.6667 42.7513 71.28H26.8313C26.8846 74.0533 27.4979 76.2133 28.6713 77.76C29.8713 79.3067 31.5246 80.08 33.6313 80.08C35.0713 80.08 36.2846 79.8 37.2713 79.24C38.2846 78.68 39.1246 77.7867 39.7913 76.56C39.9779 76.2133 40.2579 76.04 40.6313 76.04C41.0579 76.04 41.6446 76.2933 42.3913 76.8C41.8046 78.5333 40.7246 79.9067 39.1513 80.92C37.5779 81.9067 35.7379 82.4 33.6313 82.4C31.6846 82.4 29.9779 81.9467 28.5113 81.04C27.0713 80.1067 25.9646 78.7867 25.1913 77.08C24.4179 75.3467 24.0313 73.3067 24.0313 70.96C24.0313 67.4133 24.9113 64.64 26.6713 62.64C28.4313 60.6133 30.8446 59.6 33.9113 59.6C36.7113 59.6 38.8979 60.4667 40.4713 62.2C42.0446 63.9333 42.8313 66.3467 42.8313 69.44ZM40.0313 69.12C40.0313 64.32 37.9513 61.92 33.7912 61.92C31.7646 61.92 30.1646 62.5333 28.9913 63.76C27.8179 64.9867 27.1246 66.7733 26.9113 69.12H40.0313ZM57.5341 59.6C60.5207 59.6 62.8007 60.5867 64.3741 62.56C65.9474 64.5067 66.7341 67.3067 66.7341 70.96C66.7341 73.28 66.3207 75.3067 65.4941 77.04C64.6941 78.7467 63.5207 80.0667 61.9741 81C60.4541 81.9333 58.6674 82.4 56.6141 82.4C55.6007 82.4 54.5741 82.2933 53.5341 82.08C52.5207 81.8933 51.6141 81.64 50.8141 81.32V90.8H48.0941V67.48C48.0941 63.5333 47.9341 61.1867 47.6141 60.44C48.4674 60.04 49.1474 59.84 49.6541 59.84C50.4274 59.84 50.8141 60.6133 50.8141 62.16V62.32C51.6941 61.44 52.7074 60.7733 53.8541 60.32C55.0274 59.84 56.2541 59.6 57.5341 59.6ZM56.6141 80.16C58.9074 80.16 60.6807 79.36 61.9341 77.76C63.2141 76.16 63.8541 73.8933 63.8541 70.96C63.8541 64.88 61.7474 61.84 57.5341 61.84C56.3074 61.84 55.1074 62.12 53.9341 62.68C52.7874 63.24 51.7474 64.04 50.8141 65.08V78.96C52.4674 79.76 54.4007 80.16 56.6141 80.16ZM79.8803 54.24C79.1603 54.24 78.6003 54.52 78.2003 55.08C77.827 55.64 77.6403 56.44 77.6403 57.48V60H81.8003V63.68H77.6403V82H71.7203V63.68H68.4003V60H71.7203V57.44C71.7203 55.1733 72.307 53.4267 73.4803 52.2C74.6803 50.9467 76.387 50.32 78.6003 50.32C80.1203 50.32 81.3336 50.5733 82.2403 51.08C83.1736 51.56 83.6403 52.2 83.6403 53C83.6403 53.3467 83.587 53.6933 83.4803 54.04C83.3736 54.36 83.227 54.6267 83.0403 54.84C82.1336 54.44 81.0803 54.24 79.8803 54.24ZM85.7203 60H91.6403V82H85.7203V60ZM88.4003 55.96C86.3203 55.96 85.2803 54.92 85.2803 52.84V52.24C85.2803 50.16 86.3203 49.12 88.4003 49.12H88.9603C91.0403 49.12 92.0803 50.16 92.0803 52.24V52.84C92.0803 54.92 91.0403 55.96 88.9603 55.96H88.4003ZM116.053 76.48C116.053 77.8133 116.106 78.8133 116.213 79.48C116.32 80.1467 116.52 80.76 116.813 81.32C115.24 81.9067 113.613 82.2 111.933 82.2C111.266 82.2 110.8 81.88 110.533 81.24C110.266 80.6 110.133 79.4933 110.133 77.92V67.48C110.133 66.0933 109.92 65.1333 109.493 64.6C109.093 64.04 108.373 63.76 107.333 63.76C105.946 63.76 104.426 64.44 102.773 65.8V82H96.8531V67.2C96.8531 65.4133 96.8131 64.04 96.7331 63.08C96.6798 62.12 96.5598 61.3467 96.3731 60.76C98.3465 60.1467 99.9598 59.84 101.213 59.84C101.773 59.84 102.173 60.0267 102.413 60.4C102.653 60.7467 102.773 61.3333 102.773 62.16V62.64C104.133 61.4933 105.28 60.7067 106.213 60.28C107.173 59.8267 108.173 59.6 109.213 59.6C111.506 59.6 113.213 60.2267 114.333 61.48C115.48 62.7067 116.053 64.5867 116.053 67.12V76.48ZM140.347 73.72C140.347 75.88 140.427 77.4533 140.587 78.44C140.774 79.4 141.134 80.2267 141.667 80.92C140.921 81.3467 140.121 81.68 139.267 81.92C138.441 82.16 137.654 82.28 136.907 82.28C136.294 82.28 135.801 82.0533 135.427 81.6C135.081 81.1467 134.814 80.44 134.627 79.48C134.014 80.44 133.227 81.1733 132.267 81.68C131.307 82.16 130.214 82.4 128.987 82.4C126.161 82.4 123.961 81.4133 122.387 79.44C120.841 77.44 120.067 74.6533 120.067 71.08C120.067 68.76 120.481 66.7333 121.307 65C122.134 63.2667 123.307 61.9333 124.827 61C126.347 60.0667 128.121 59.6 130.147 59.6C131.747 59.6 133.174 59.9467 134.427 60.64V50.36H140.347V73.72ZM129.987 78.56C131.854 78.56 133.334 77.5333 134.427 75.48V64.56C133.494 63.76 132.281 63.36 130.787 63.36C129.294 63.36 128.134 64.04 127.307 65.4C126.481 66.7333 126.067 68.6267 126.067 71.08C126.067 73.64 126.387 75.5333 127.027 76.76C127.667 77.96 128.654 78.56 129.987 78.56ZM164.773 69.56C164.773 69.9333 164.707 70.7733 164.573 72.08H150.413C150.547 74.1067 151.027 75.68 151.853 76.8C152.707 77.92 153.813 78.48 155.173 78.48C155.787 78.48 156.293 78.4 156.693 78.24C157.12 78.08 157.547 77.8 157.973 77.4C158.427 76.9733 159.013 76.2933 159.733 75.36C159.867 75.1467 160.147 75.04 160.573 75.04C161.027 75.04 161.573 75.2 162.213 75.52C162.88 75.8133 163.587 76.24 164.333 76.8C162.6 80.5333 159.547 82.4 155.173 82.4C151.813 82.4 149.173 81.3867 147.253 79.36C145.333 77.3067 144.373 74.5067 144.373 70.96C144.373 68.64 144.8 66.6267 145.653 64.92C146.533 63.2133 147.773 61.9067 149.373 61C151 60.0667 152.92 59.6 155.133 59.6C158.2 59.6 160.573 60.4667 162.253 62.2C163.933 63.9333 164.773 66.3867 164.773 69.56ZM158.773 68.72C158.773 65.1467 157.52 63.36 155.013 63.36C153.733 63.36 152.707 63.8133 151.933 64.72C151.16 65.6267 150.68 66.96 150.493 68.72H158.773ZM179.417 59.72C180.697 59.72 181.63 60 182.217 60.56C182.803 61.0933 183.097 61.96 183.097 63.16C183.097 63.6133 183.03 64.0667 182.897 64.52C182.79 64.9467 182.63 65.28 182.417 65.52C182.097 65.3333 181.737 65.2 181.337 65.12C180.937 65.04 180.363 65 179.617 65C177.883 65 176.59 65.5333 175.737 66.6C174.91 67.6667 174.497 69.2933 174.497 71.48V82H168.577V60H174.497V62.92C175.03 61.88 175.723 61.0933 176.577 60.56C177.43 60 178.377 59.72 179.417 59.72Z" fill="#1A1A1A"/>
<path d="M81.3333 35L79.6667 33.3333L93 3.33333L106.333 33.3333L104.667 35L93 30L81.3333 35ZM84.8333 29.8333L93 26.3333L101.167 29.8333L93 11.5L84.8333 29.8333Z" fill="#1A1A1A"/>
</svg>
